<svg xmlns="http://www.w3.org/2000/svg" xmlns:xlink="http://www.w3.org/1999/xlink" width="181" height="47" viewBox="0 0 181 47">
  <defs>
    <linearGradient id="linear-gradient" y1="0.5" x2="1" y2="0.5" gradientUnits="objectBoundingBox">
      <stop offset="0" stop-color="#9e005d"/>
      <stop offset="1" stop-color="#662d91"/>
    </linearGradient>
  </defs>
  <g id="Group_2046" data-name="Group 2046" transform="translate(-923 -529)">
    <rect id="Rectangle_1568" data-name="Rectangle 1568" width="181" height="47" transform="translate(923 529)" fill="#fff"/>
    <g id="Group_2045" data-name="Group 2045" transform="translate(931.406 538.962)">
      <g id="Group_2043" data-name="Group 2043" transform="translate(35.989 0.407)">
        <path id="Path_10" data-name="Path 10" d="M404.355,887.488a4.784,4.784,0,0,1,4.1,1.969,10.918,10.918,0,0,1,3.265-1.493,12.152,12.152,0,0,1,3.134-.476h.328a4.628,4.628,0,0,1,4.922,4.922v12.8h-5.743V893.395a1.122,1.122,0,0,0-1.149-1.149h-.164a14.354,14.354,0,0,0-3.774.657v12.306h-5.743V893.395a1.122,1.122,0,0,0-1.149-1.149h-.164a14.354,14.354,0,0,0-3.774.657v12.306h-5.743V887.816h5.086l.328,1.641a11.755,11.755,0,0,1,3.167-1.493,10.086,10.086,0,0,1,2.74-.476Z" transform="translate(-392.706 -882.238)" fill="url(#linear-gradient)"/>
        <path id="Path_11" data-name="Path 11" d="M459.146,888.144a100.808,100.808,0,0,1,10.829-.656,4.628,4.628,0,0,1,4.922,4.922v12.8h-5.086l-.328-1.641a11.729,11.729,0,0,1-3.167,1.493,10.086,10.086,0,0,1-2.74.476h-1.149a4.628,4.628,0,0,1-4.922-4.922v-1.477a4.628,4.628,0,0,1,4.922-4.922h6.727V892.9a1.122,1.122,0,0,0-1.149-1.148q-2.134,0-4.709.2t-4.151.295Zm6.071,12.8a13.922,13.922,0,0,0,3.938-.656v-1.969H464.4a1.121,1.121,0,0,0-1.149,1.148v.328a1.121,1.121,0,0,0,1.149,1.148Z" transform="translate(-427.972 -882.238)" fill="url(#linear-gradient)"/>
        <path id="Path_12" data-name="Path 12" d="M500.312,901.006q6.662.492,10.5.492a1.122,1.122,0,0,0,1.148-1.149V899.2h-7.055a4.628,4.628,0,0,1-4.922-4.922V893.13a4.628,4.628,0,0,1,4.922-4.922h11.157v4.266h-9.188a1.149,1.149,0,1,0,0,2.3h5.907a4.628,4.628,0,0,1,4.922,4.922v1.313a4.628,4.628,0,0,1-4.922,4.922q-5.808,0-12.47-.656Z" transform="translate(-451.09 -882.629)" fill="url(#linear-gradient)"/>
        <path id="Path_13" data-name="Path 13" d="M549.646,881.874a28.146,28.146,0,0,1,5.579-.656H556.7a4.628,4.628,0,0,1,4.922,4.922v12.8H555.88V886.8a1.121,1.121,0,0,0-1.148-1.149h-1.149a18.2,18.2,0,0,0-2.281.131q-1.034.131-1.657.2v12.962H543.9V875.968h5.743Z" transform="translate(-474.993 -875.968)" fill="url(#linear-gradient)"/>
        <path id="Path_14" data-name="Path 14" d="M597.3,901.17a13.923,13.923,0,0,0,3.938-.656V888.208h5.743V905.6H601.9l-.328-1.641a11.732,11.732,0,0,1-3.167,1.493,10.082,10.082,0,0,1-2.74.476h-1.477a4.628,4.628,0,0,1-4.922-4.922v-12.8h5.742v11.813a1.122,1.122,0,0,0,1.149,1.149Z" transform="translate(-499.679 -882.629)" fill="url(#linear-gradient)"/>
        <path id="Path_15" data-name="Path 15" d="M641.085,905.208v5.579h-5.742V887.816h5.086l.328,1.641a11.748,11.748,0,0,1,3.167-1.493,10.083,10.083,0,0,1,2.74-.476h1.477a4.628,4.628,0,0,1,4.922,4.922v7.547a4.831,4.831,0,0,1-5.251,5.25Zm3.938-12.962a13.939,13.939,0,0,0-3.938.657v7.876h4.922a1.16,1.16,0,0,0,1.313-1.313v-6.071a1.122,1.122,0,0,0-1.148-1.149Z" transform="translate(-524.757 -882.238)" fill="url(#linear-gradient)"/>
      </g>
      <g id="Group_2044" data-name="Group 2044">
        <path id="Path_16" data-name="Path 16" d="M321.286,904.438H315.21a1.257,1.257,0,0,1-1.468-1.468V876.543a1.257,1.257,0,0,1,1.468-1.468h6.566a1.917,1.917,0,0,1,1.081.285,2.684,2.684,0,0,1,.8.938l3.67,6.648a3.133,3.133,0,0,0,.346.53.488.488,0,0,0,.387.163h.367a.49.49,0,0,0,.388-.163,3.253,3.253,0,0,0,.346-.53l3.63-6.648a2.68,2.68,0,0,1,.8-.938,1.913,1.913,0,0,1,1.081-.285h6.607a1.257,1.257,0,0,1,1.468,1.468v26.426a1.257,1.257,0,0,1-1.468,1.468h-6.281a1.257,1.257,0,0,1-1.468-1.468V888.614l-2.406,4.445a2.182,2.182,0,0,1-2.161,1.305h-1.631a2.182,2.182,0,0,1-2.162-1.305l-2.406-4.445v14.355a1.257,1.257,0,0,1-1.468,1.468Zm6.811-15.7a1.455,1.455,0,0,1-1.061-.326,10,10,0,0,1-1.02-1.386l-4.975-7.586a1.3,1.3,0,0,0-.571-.55,1.617,1.617,0,0,0-.653-.143h-.693a.994.994,0,0,0-.795.305,1.438,1.438,0,0,0-.265.958v20.758h.407V880.01a1.4,1.4,0,0,1,.123-.591.521.521,0,0,1,.53-.265h.612a1.493,1.493,0,0,1,.51.082,1.089,1.089,0,0,1,.469.49l4.976,7.5a12.4,12.4,0,0,0,1.121,1.509,2.225,2.225,0,0,0,2.569,0,12.5,12.5,0,0,0,1.122-1.509l4.975-7.5a1.141,1.141,0,0,1,.449-.49,1.316,1.316,0,0,1,.49-.082h.611a.568.568,0,0,1,.551.265,1.227,1.227,0,0,1,.143.591v20.758h.408V880.01a1.443,1.443,0,0,0-.265-.958,1.051,1.051,0,0,0-.836-.305h-.693a1.473,1.473,0,0,0-.632.143,1.332,1.332,0,0,0-.551.55l-4.976,7.586a10.08,10.08,0,0,1-1.02,1.386A1.455,1.455,0,0,1,328.1,888.737Z" transform="translate(-313.742 -875.075)" fill="url(#linear-gradient)"/>
      </g>
    </g>
  </g>
</svg>
